<?xml version="1.0" encoding="utf-8"?>
<!-- Generator: Adobe Illustrator 28.0.0, SVG Export Plug-In . SVG Version: 6.00 Build 0)  -->
<svg version="1.1" id="Layer_1" xmlns="http://www.w3.org/2000/svg" xmlns:xlink="http://www.w3.org/1999/xlink" x="0px" y="0px"
	 viewBox="0 0 1920 1080" style="enable-background:new 0 0 1920 1080;" xml:space="preserve">
<style type="text/css">
	.st0{fill:#FFFFFF;}
</style>
<g>
	<path class="st0" d="M709.1,520h-41v-39h33c4.4,0,8-3.6,8-8v-33h39v41C748.1,502.6,730.6,520,709.1,520z M668.1,524h-41v39h33
		c4.4,0,8,3.6,8,8v33h39v-41C707.1,541.4,689.6,524,668.1,524z M799.2,522c-4.4,0-8-3.6-8-8v-33h-39v41c0,21.6,17.5,39,39,39h41v-39
		H799.2z M711.1,604v41h39v-33c0-4.4,3.6-8,8-8h33v-39h-41C728.5,565,711.1,582.5,711.1,604z"/>
	<path class="st0" d="M1096.6,467.7h-38.9v-27.8h38.9V467.7z M1066.3,490.8h-23.4V520h20.4c3.4,0,6.2,2.8,6.2,6.2v118.9h30.8V524
		C1100.3,502.5,1086.4,490.8,1066.3,490.8L1066.3,490.8z M972.2,439.9l76.2,205.1H1016l-20.2-54.5h-95.3L880.3,645h-32.1l76.2-205.1
		H972.2z M986.3,565l-38.1-102.6L910.1,565H986.3L986.3,565z M1173,619.5l62.6-49.4c36.4-28.7,52.4-48.7,52.4-76.2
		s-18.2-59.5-73.1-59.5s-88.2,44.6-88.2,85.6h33.3c0-37,16.4-59.4,54.9-59.4s39.8,16.5,39.8,33.6s-4.6,25.9-22.5,40.4l-104.9,84.8
		V645h164.4v-25.6h-118.8L1173,619.5z"/>
</g>
</svg>
