<?xml version="1.0" encoding="utf-8"?>
<!-- Generator: $$$/GeneralStr/196=Adobe Illustrator 27.6.0, SVG Export Plug-In . SVG Version: 6.00 Build 0)  -->
<svg version="1.1" id="Calque_1" xmlns="http://www.w3.org/2000/svg" xmlns:xlink="http://www.w3.org/1999/xlink" x="0px" y="0px"
	 viewBox="0 0 500 193.07" style="enable-background:new 0 0 500 193.07;" xml:space="preserve">
<g>
	<g>
		<path d="M56.11,33.37V6.67h16.72v4.89H61.31v6.1h10.43v4.63H61.31v6.18h11.52v4.9H56.11z M66.09,4.79h-4.6L65.37,0h6.18
			L66.09,4.79z"/>
		<path d="M76.38,20.04c0-8.51,6.44-13.94,13.6-13.94c7.38,0,11.18,4.52,12.24,8.85l-4.9,1.54c-0.64-2.56-2.71-5.38-7.34-5.38
			c-3.99,0-8.21,2.86-8.21,8.92c0,5.69,3.99,8.81,8.28,8.81c4.56,0,6.78-2.97,7.5-5.46l4.86,1.47c-1.02,4.11-4.86,9.08-12.35,9.08
			C82.6,33.93,76.38,28.55,76.38,20.04z"/>
		<path d="M118.61,6.1c7.27,0,13.74,5.31,13.74,13.94c0,8.59-6.48,13.9-13.74,13.9c-7.23,0-13.71-5.31-13.71-13.9
			C104.9,11.42,111.38,6.1,118.61,6.1z M118.61,28.89c4.15,0,8.36-2.86,8.36-8.89c0-6.02-4.22-8.89-8.36-8.89
			c-4.11,0-8.32,2.86-8.32,8.89C110.29,26.03,114.51,28.89,118.61,28.89z"/>
		<path d="M136.89,33.37V6.67h5.19V28.4h11.91v4.97H136.89z"/>
		<path d="M158,33.37V6.67h16.72v4.89h-11.52v6.1h10.43v4.63h-10.43v6.18h11.52v4.9H158z"/>
		<path d="M73.43,78.59L61.31,59.65v18.94h-5.2v-26.7h6.48L73.7,69.55V51.89h5.2v26.7H73.43z"/>
		<path d="M100.9,72.48H90.06l-2.22,6.1h-5.5l10.24-26.7h6.03l10.17,26.7h-5.65L100.9,72.48z M91.79,67.74h7.38l-3.69-10.09
			L91.79,67.74z"/>
		<path d="M120.98,56.82v21.77h-5.23V56.82h-8.44v-4.93h22.11v4.93H120.98z"/>
		<path d="M133.09,78.59v-26.7h5.27v26.7H133.09z"/>
		<path d="M156.59,51.32c7.27,0,13.75,5.31,13.75,13.93c0,8.59-6.48,13.9-13.75,13.9c-7.23,0-13.71-5.31-13.71-13.9
			C142.89,56.63,149.36,51.32,156.59,51.32z M156.59,74.11c4.14,0,8.36-2.86,8.36-8.89c0-6.03-4.22-8.89-8.36-8.89
			c-4.1,0-8.32,2.86-8.32,8.89C148.27,71.25,152.49,74.11,156.59,74.11z"/>
		<path d="M192.2,78.59l-12.13-18.94v18.94h-5.2v-26.7h6.48l11.11,17.66V51.89h5.2v26.7H192.2z"/>
		<path d="M219.67,72.48h-10.85l-2.22,6.1h-5.5l10.25-26.7h6.02l10.17,26.7h-5.65L219.67,72.48z M210.55,67.74h7.38l-3.69-10.09
			L210.55,67.74z"/>
		<path d="M230.98,78.59v-26.7h5.2v21.73h11.9v4.97H230.98z"/>
		<path d="M252.08,78.59v-26.7h16.72v4.89h-11.52v6.1h10.43v4.63h-10.43v6.18h11.52v4.9H252.08z"/>
		<path d="M296.61,59.68c-0.26-1.47-1.47-3.77-4.86-3.77c-2.52,0-4.18,1.62-4.18,3.39c0,1.47,0.94,2.64,2.9,3.01l3.73,0.72
			c4.86,0.94,7.46,4.1,7.46,7.87c0,4.1-3.43,8.25-9.64,8.25c-7.08,0-10.21-4.56-10.62-8.36l4.82-1.28c0.23,2.64,2.07,5.01,5.84,5.01
			c2.78,0,4.33-1.39,4.33-3.28c0-1.54-1.17-2.75-3.24-3.16l-3.73-0.75c-4.26-0.87-7-3.62-7-7.64c0-4.75,4.25-8.36,9.3-8.36
			c6.48,0,8.96,3.92,9.56,6.93L296.61,59.68z"/>
		<path d="M305.74,69.13V51.89h5.19v16.87c0,3.5,1.96,5.35,5.05,5.35c3.17,0,5.08-1.85,5.08-5.35V51.89h5.2v17.24
			c0,6.55-4.56,10.06-10.28,10.06C310.29,79.19,305.74,75.69,305.74,69.13z"/>
		<path d="M337.31,68.53v10.06h-5.19v-26.7h9.98c5.27,0,8.78,3.5,8.78,8.32c0,4.86-3.51,8.32-8.78,8.32H337.31z M341.45,64.05
			c2.6,0,4.18-1.5,4.18-3.8c0-2.38-1.58-3.84-4.18-3.84h-4.11v7.64H341.45z"/>
		<path d="M354.83,78.59v-26.7h16.72v4.89h-11.52v6.1h10.43v4.63h-10.43v6.18h11.52v4.9H354.83z M364.82,50.01h-4.6l3.88-4.78h6.17
			L364.82,50.01z"/>
		<path d="M384.71,68.31H382v10.28h-5.24v-26.7h10.44c5.2,0,8.51,3.57,8.51,8.21c0,3.73-2.18,6.55-5.68,7.57l5.72,10.93h-5.8
			L384.71,68.31z M386.21,63.83c2.63,0,4.18-1.51,4.18-3.69c0-2.26-1.55-3.73-4.18-3.73H382v7.42H386.21z"/>
		<path d="M400.31,78.59v-26.7h5.27v26.7H400.31z"/>
		<path d="M411.69,78.59v-26.7h16.72v4.89h-11.53v6.1h10.43v4.63h-10.43v6.18h11.53v4.9H411.69z"/>
		<path d="M433.35,69.13V51.89h5.2v16.87c0,3.5,1.96,5.35,5.05,5.35c3.16,0,5.09-1.85,5.09-5.35V51.89h5.19v17.24
			c0,6.55-4.56,10.06-10.28,10.06C437.91,79.19,433.35,75.69,433.35,69.13z"/>
		<path d="M467.68,68.31h-2.71v10.28h-5.23v-26.7h10.43c5.2,0,8.51,3.57,8.51,8.21c0,3.73-2.18,6.55-5.68,7.57l5.73,10.93h-5.8
			L467.68,68.31z M469.18,63.83c2.64,0,4.18-1.51,4.18-3.69c0-2.26-1.55-3.73-4.18-3.73h-4.22v7.42H469.18z"/>
		<path d="M483.28,78.59v-26.7H500v4.89h-11.52v6.1h10.43v4.63h-10.43v6.18H500v4.9H483.28z"/>
		<path d="M56.11,192.51v-26.7h5.2v21.73h11.9v4.97H56.11z"/>
		<path d="M71.86,165.81h6.1l5.99,10.58l5.99-10.58h5.84l-9.42,15.48v11.22h-5.2v-11.22L71.86,165.81z"/>
		<path d="M109.53,165.25c7.27,0,13.75,5.31,13.75,13.93c0,8.59-6.48,13.9-13.75,13.9c-7.23,0-13.71-5.31-13.71-13.9
			C95.82,170.56,102.3,165.25,109.53,165.25z M109.53,188.03c4.15,0,8.36-2.86,8.36-8.89c0-6.03-4.21-8.88-8.36-8.88
			c-4.1,0-8.32,2.86-8.32,8.88C101.21,185.17,105.43,188.03,109.53,188.03z"/>
		<path d="M145.14,192.51l-12.13-18.94v18.94h-5.2v-26.7h6.47l11.11,17.67v-17.67h5.2v26.7H145.14z"/>
	</g>
	<path d="M253.82,147.29v-49.7h31.13v9.11H263.5v11.36h19.42v8.61H263.5v11.5h21.45v9.12H253.82z"/>
	<path d="M291.56,122.47c0-15.84,11.99-25.94,25.31-25.94c13.73,0,20.82,8.41,22.78,16.47l-9.12,2.88
		c-1.19-4.77-5.04-10.02-13.66-10.02c-7.44,0-15.28,5.33-15.28,16.61c0,10.59,7.43,16.4,15.42,16.4c8.48,0,12.62-5.54,13.95-10.17
		l9.04,2.74c-1.89,7.64-9.04,16.89-22.99,16.89C303.12,148.34,291.56,138.32,291.56,122.47z"/>
	<path d="M368.42,97.59v49.7h-9.75v-40.52h-15.7v-9.18H368.42z"/>
	<path d="M438.42,128.15h-5.05v19.14h-9.74v-49.7h19.42c9.67,0,15.84,6.65,15.84,15.28c0,6.94-4.07,12.2-10.59,14.08l10.66,20.33
		h-10.8L438.42,128.15z M441.23,119.81c4.91,0,7.78-2.8,7.78-6.88c0-4.2-2.88-6.94-7.78-6.94h-7.85v13.82H441.23z"/>
	<path d="M467.47,147.29v-49.7h31.12v9.11h-21.45v11.36h19.42v8.61h-19.42v11.5h21.45v9.12H467.47z"/>
	<g>
		<path d="M403.07,97.59V129c0,6.52-3.58,9.96-9.47,9.96c-5.74,0-9.39-3.43-9.39-9.96v-22.22h9.43v-9.18h-9.43h-9.67h-0.01v32.1
			c0,12.2,8.49,18.72,19.07,18.72c10.66,0,19.14-6.53,19.14-18.72v-32.1H403.07z"/>
		<path d="M0,147.29h12.01l9-11.36h18.46v11.36h9.75v-49.7h-9.75L0,147.29z M39.47,127.1H27.88l11.59-14.29V127.1z"/>
		<path d="M8.38,112.87v4.27c4.42-0.42,10.87-3.85,10.87-13.25c0-3.72-2.39-6.8-6.1-6.8c-3.3,0-5.62,2.38-5.62,5.12
			c0,2.94,1.97,5.04,5.12,5.04c0.63,0,1.12-0.14,1.48-0.35C13.99,110.14,11.04,112.45,8.38,112.87z"/>
		<path d="M91.38,112.87c0-8.62-6.17-15.28-15.85-15.28H56.11v49.7h9.75v-19.14h5.05l9.73,19.14h10.8l-10.65-20.33
			C87.31,125.07,91.38,119.81,91.38,112.87z M73.71,119.81h-7.85V106h7.85c4.9,0,7.78,2.74,7.78,6.94
			C81.49,117.01,78.61,119.81,73.71,119.81z"/>
		<path d="M122.1,138.88c-7.99,0-15.42-5.82-15.42-16.4c0-11.29,7.85-16.61,15.28-16.61c8.62,0,12.48,5.26,13.67,10.02l9.12-2.88
			c-1.97-8.05-9.05-16.47-22.79-16.47c-13.32,0-25.3,10.1-25.3,25.94c0,15.84,11.57,25.87,25.44,25.87c13.95,0,21.1-9.25,23-16.89
			l-9.05-2.74C134.72,133.34,130.58,138.88,122.1,138.88z"/>
		<polygon points="184.52,117.57 162.86,117.57 162.86,97.59 153.18,97.59 153.18,147.29 162.86,147.29 162.86,126.67 
			184.52,126.67 184.52,147.29 194.27,147.29 194.27,97.59 184.52,97.59 		"/>
		<rect x="205.65" y="97.59" width="9.81" height="49.7"/>
		<polygon points="222.27,106.77 237.98,106.77 237.98,147.29 247.7,147.29 247.7,97.59 222.27,97.59 		"/>
	</g>
</g>
</svg>
